<svg width="319" height="94" viewBox="0 0 319 94" fill="none" xmlns="http://www.w3.org/2000/svg">
<path opacity="0.2" d="M60.2631 62.8122L57.8802 66.9456C57.5667 67.4466 57.1277 68.1355 57.1277 68.1355C51.1076 65.8809 47.3451 57.6769 45.5265 51.4769C45.0249 49.6607 43.2063 40.0162 42.1403 33.1899C42.9555 35.8203 43.7707 38.9516 44.4605 42.8344C46.718 54.6708 53.1143 60.6829 60.2631 62.8122Z" fill="white"/>
<path d="M47.0317 0C21.0702 0 0 21.0425 0 46.9698C0 72.8972 21.0702 93.9397 47.0317 93.9397C72.9932 93.9397 94.0634 72.8972 94.0634 46.9698C94.1261 21.0425 73.0559 0 47.0317 0ZM57.8803 66.9477C57.8803 66.9477 57.8803 67.0103 57.8803 66.9477L52.8636 75.6527C50.1671 80.3497 43.3946 80.3497 40.6981 75.6527L28.4071 54.5476L16.1789 33.3799C13.4824 28.6829 16.8687 22.8587 22.2617 22.8587H34.4899C36.2458 22.8587 37.9389 23.798 38.8168 25.3011C39.8829 27.1173 41.0116 29.6849 42.1404 33.2546C42.9556 35.885 43.7708 39.0163 44.4606 42.8991C46.7181 54.7355 53.1144 60.685 60.2633 62.8143L57.8803 66.9477ZM77.3201 33.3799L66.1579 52.6062C64.7783 52.481 63.2733 52.1678 61.831 51.4789C58.5701 49.788 56.3753 46.2183 55.372 40.8324C54.3059 35.2587 53.0517 30.4365 51.484 26.3657C50.8569 24.6748 52.1111 22.8587 53.9297 22.8587H71.1119C76.6303 22.796 80.0166 28.6829 77.3201 33.3799Z" fill="white"/>
<path d="M146.926 27.936L129.054 68.2048H124.853L106.981 27.936H111.559L126.985 62.8816L142.537 27.936H146.926Z" fill="white"/>
<path d="M175.897 54.3626H150.563C151.002 60.6879 155.831 64.8839 162.478 64.8839C166.178 64.8839 169.438 63.5687 171.759 60.9384L174.079 63.5687C171.382 66.7627 167.181 68.5162 162.415 68.5162C152.946 68.5162 146.55 62.0657 146.55 53.1101C146.55 44.1545 152.821 37.7666 161.349 37.7666C169.877 37.7666 176.023 44.0292 176.023 53.1101C175.96 53.4232 175.897 53.8616 175.897 54.3626ZM150.563 51.2939H172.072C171.57 45.3444 167.244 41.2111 161.286 41.2111C155.454 41.2111 151.127 45.3444 150.563 51.2939Z" fill="white"/>
<path d="M199.602 37.7025V41.648C199.226 41.648 198.912 41.5854 198.599 41.5854C192.265 41.5854 188.377 45.5934 188.377 52.7329V68.139H184.364V37.953H188.252V43.8399C190.133 39.8318 194.021 37.7025 199.602 37.7025Z" fill="white"/>
<path d="M233.026 54.3626H207.692C208.131 60.6879 212.959 64.8839 219.606 64.8839C223.306 64.8839 226.567 63.5687 228.887 60.9384L231.207 63.5687C228.511 66.7627 224.309 68.5162 219.544 68.5162C210.075 68.5162 203.678 62.0657 203.678 53.1101C203.678 44.1545 209.949 37.7666 218.478 37.7666C227.006 37.7666 233.151 44.0292 233.151 53.1101C233.089 53.4232 233.026 53.8616 233.026 54.3626ZM207.692 51.2939H229.201C228.699 45.3444 224.372 41.2111 218.415 41.2111C212.583 41.2111 208.256 45.3444 207.692 51.2939Z" fill="white"/>
<path d="M269.334 50.6662V68.2016H265.258V51.0419C265.258 44.6541 261.935 41.3975 256.165 41.3975C249.644 41.3975 245.567 45.4056 245.567 52.2945V68.139H241.491V37.953H245.379V43.5268C247.574 39.8318 251.65 37.7025 256.918 37.7025C264.255 37.7025 269.334 41.9611 269.334 50.6662Z" fill="white"/>
<path d="M279.556 28.3726C279.556 26.807 280.873 25.4918 282.566 25.4918C284.259 25.4918 285.576 26.7444 285.576 28.31C285.576 30.0009 284.322 31.3161 282.566 31.3161C280.873 31.3161 279.556 30.0009 279.556 28.3726ZM280.434 37.9545H284.51V68.2031H280.434V37.9545Z" fill="white"/>
<path d="M318.812 49.4157V68.141H314.924V63.4441C313.105 66.5754 309.531 68.4542 304.514 68.4542C297.679 68.4542 293.478 64.8845 293.478 59.6238C293.478 54.9895 296.488 51.044 305.141 51.044H314.736V49.2279C314.736 44.0299 311.789 41.2117 306.145 41.2117C302.257 41.2117 298.557 42.5895 296.049 44.7814L294.23 41.7127C297.303 39.145 301.755 37.642 306.584 37.642C314.36 37.7046 318.812 41.6501 318.812 49.4157ZM314.736 59.1228V54.1753H305.204C299.309 54.1753 297.428 56.4925 297.428 59.5612C297.428 63.0683 300.25 65.2602 305.079 65.2602C309.719 65.2602 313.105 63.0683 314.736 59.1228Z" fill="white"/>
</svg>
